<svg width="48" height="50" viewBox="0 0 48 50" fill="none" xmlns="http://www.w3.org/2000/svg">
<rect width="47.3743" height="50" rx="5" fill="#00B840"/>
<path fill-rule="evenodd" clip-rule="evenodd" d="M19.665 16.5C17.135 16.5 15.5 18.233 15.5 20.916V29.084C15.5 31.767 17.135 33.5 19.665 33.5H28.333C30.864 33.5 32.5 31.767 32.5 29.084V20.916C32.5 18.233 30.864 16.5 28.334 16.5H19.665ZM28.333 35H19.665C16.276 35 14 32.622 14 29.084V20.916C14 17.378 16.276 15 19.665 15H28.334C31.723 15 34 17.378 34 20.916V29.084C34 32.622 31.723 35 28.333 35Z" fill="white"/>
<path fill-rule="evenodd" clip-rule="evenodd" d="M22.8135 28.1232C22.6225 28.1232 22.4295 28.0502 22.2835 27.9032L19.9095 25.5302C19.6165 25.2372 19.6165 24.7632 19.9095 24.4702C20.2025 24.1772 20.6765 24.1772 20.9695 24.4702L22.8135 26.3122L27.0295 22.0972C27.3225 21.8042 27.7965 21.8042 28.0895 22.0972C28.3825 22.3902 28.3825 22.8642 28.0895 23.1572L23.3435 27.9032C23.1975 28.0502 23.0055 28.1232 22.8135 28.1232Z" fill="white"/>
</svg>
