<svg width="40" height="41" viewBox="0 0 40 41" fill="none" xmlns="http://www.w3.org/2000/svg">
<rect x="0.5" y="1.05322" width="39" height="39" rx="19.5" fill="white"/>
<path fill-rule="evenodd" clip-rule="evenodd" d="M25.2496 15.3117C24.9246 14.9867 24.3996 14.9867 24.0746 15.3117L19.9996 19.3783L15.9246 15.3033C15.5996 14.9783 15.0746 14.9783 14.7496 15.3033C14.4246 15.6283 14.4246 16.1533 14.7496 16.4783L18.8246 20.5533L14.7496 24.6283C14.4246 24.9533 14.4246 25.4783 14.7496 25.8033C15.0746 26.1283 15.5996 26.1283 15.9246 25.8033L19.9996 21.7283L24.0746 25.8033C24.3996 26.1283 24.9246 26.1283 25.2496 25.8033C25.5746 25.4783 25.5746 24.9533 25.2496 24.6283L21.1746 20.5533L25.2496 16.4783C25.5663 16.1617 25.5663 15.6283 25.2496 15.3117Z" fill="#2E2E2E"/>
<rect x="0.5" y="1.05322" width="39" height="39" rx="19.5" stroke="#E0E0E0"/>
</svg>
