<svg width="48" height="49" viewBox="0 0 48 49" fill="none" xmlns="http://www.w3.org/2000/svg">
<path d="M36 12.5156H40M44 12.5156H40M40 12.5156V8.51563M40 12.5156V16.5156M4 22.5156V9.71562C4 9.39737 4.12643 9.09214 4.35147 8.8671C4.57652 8.64205 4.88174 8.51563 5.2 8.51563H17.556C17.842 8.5156 18.1186 8.61774 18.336 8.80363L24.664 14.2276C24.8814 14.4135 25.158 14.5156 25.444 14.5156H28M42.8 40.5156H5.2C4.88174 40.5156 4.57652 40.3892 4.35147 40.1642C4.12643 39.9391 4 39.6339 4 39.3156V22.5156H42.8C42.9576 22.5156 43.1136 22.5467 43.2592 22.607C43.4048 22.6673 43.5371 22.7557 43.6485 22.8671C43.76 22.9785 43.8484 23.1108 43.9087 23.2564C43.969 23.402 44 23.558 44 23.7156V39.3156C44 39.4732 43.969 39.6293 43.9087 39.7748C43.8484 39.9204 43.76 40.0527 43.6485 40.1642C43.5371 40.2756 43.4048 40.364 43.2592 40.4243C43.1136 40.4846 42.9576 40.5156 42.8 40.5156V40.5156Z" stroke="black" stroke-width="1.5" stroke-linecap="round" stroke-linejoin="round"/>
</svg>
